<?xml version="1.0" encoding="UTF-8"?>
<svg id="_Шар_1" data-name="Шар 1" xmlns="http://www.w3.org/2000/svg" viewBox="0 0 130 35">
  <defs>
    <style>
      .cls-1 {
        stroke-width: 0px;
      }
    </style>
  </defs>
  <path class="cls-1" d="m37.4031727369,10.5439026075v2.8772140168c.5410815629-.9816460708,1.2174829611-1.7601838328,2.096797362-2.3356139042.8793144009-.5416001126,1.8262244415-.8461970616,2.9422818041-.8461970616,1.2174829611,0,2.2997103647.3384918039,3.280447892,1.0154754115.9807375272.6769842257,1.7585645239,1.6247354417,2.3335403235,2.8094249253.5749115217,1.1847543795.8454869143,2.5048928722.8454869143,3.9604142419,0,1.4554570918-.2705753926,2.7755955845-.8454869143,3.960349964-.5749757996,1.1846888655-1.3528027963,2.1324406995-2.3335403235,2.8094255433-.9807375272.6769823716-2.0967948897,1.0154747935-3.280447892,1.0154747935-1.0483974448,0-1.9615442768-.2707682264-2.8070287189-.778472248-.8454844421-.5416007306-1.5218190901-1.2524798112-2.0291374443-2.2002316452v8.6654077312h-2.0629649309V10.5439026075h1.8600519281Zm7.1020440969,12.321093996c.7101670791-.4738752989,1.2851428787-1.1508589066,1.6909688842-2.0309508231.40583095-.8461976797.6087414805-1.7939495137.6087414805-2.84331978,0-1.0493059884-.2029105305-1.9970578225-.6087414805-2.8433197801-.4058260055-.8461976797-.9808018051-1.5231812874-1.6909688842-2.0309514411-.710231357-.473875917-1.4880534092-.7447084213-2.3673702824-.7447084213-.8793119287,0-1.6571389254.2370025454-2.3673035322.7447084213-.710231357.473875299-1.2513129199,1.1508595247-1.6571389254,2.0309514411-.4058927557.8462619576-.6087414805,1.7940137917-.6087414805,2.8433197801,0,1.0493702663.2028487249,1.9971221004.6087414805,2.84331978.4058260055.8462619576.9469075684,1.5232455653,1.6571389254,2.0309508231.7101646068.473940813,1.4879916035.7447090393,2.3673035322.7447090393.8793168731,0,1.6571389254-.2369382675,2.3673702824-.7447090393Z"/>
  <path class="cls-1" d="m52.4190489143,24.7267358269c-.7440613158-.7446435253-1.1498873213-1.7262908322-1.1498873213-2.9787038932,0-1.4893513286.5749115217-2.6402757492,1.7586288018-3.3849192746,1.1836480578-.7785377621,2.8407919276-1.2185843383,4.9375868173-1.3539684515,1.0483974449-.0677241955,1.8262244416-.2369370314,2.2997103647-.4400453401.4734859232-.2031083087.7101670791-.5754306894.7101670791-1.0493059884,0-.947816112-.3381710324-1.726354492-.9807424717-2.3356139042-.6764013982-.6431542669-1.4880534092-.947751834-2.5026208953-.947751834-1.0484023893,0-1.8938843592.3045975671-2.5702214794.9139218752-.6764013982.6092594122-1.1160573625,1.4893519466-1.2851428787,2.6063821306h-1.9277093735c.2367404894-1.6924596373.8454819699-3.0464280888,1.8938794147-3.9942442007,1.0484023893-.9815817928,2.3673702824-1.4555219878,3.9568542346-1.4555219878,1.6571389254,0,2.9761068184.5416001126,3.9568492901,1.6248003377.9807375272,1.0831353292,1.4880534092,2.538657317,1.4880534092,4.3665653453v7.1083309711h1.7922659269v2.0986107407l-3.51706477.0338299588v-2.8771485028c-.507315882.9477518341-1.2513129199,1.7262895961-2.2997103647,2.3017202856-1.014567486.5754282172-2.1644548074.8800906803-3.3819377684.8800906803-1.3527385184,0-2.4011359633-.3723223807-3.1789580155-1.1170289478Zm6.1212398196-1.5570767602c.7778220522-.473875299,1.4203934916-1.1508601428,1.8938843592-1.9632278636.4734859232-.8123677209.7102264125-1.6924596373.7102264125-2.6741057081v-.6092594121c-.2029105305.2031083087-.5749757996.3723223807-1.1160573625.5077052578-.5410815629.1354496272-1.217482961.2708325043-1.9953050133.3046624631-1.6233732445.1353841132-2.8408562055.4400465763-3.5848532434.8800919164-.7440613158.4400465763-1.1160573625,1.0832002251-1.1160573625,1.9293979048,0,.7447078033.2367454338,1.3201384927.6764013982,1.6924596373.4734859232.4062166174,1.1160573625.6092594122,1.9277093735.6092594122.9469125129.0677241955,1.7923944828-.1692128359,2.6040514383-.6769836077Z"/>
  <path class="cls-1" d="m68.3151443278,24.5236917961c-1.1840436141-.9139218752-1.894339249-2.2340603679-2.0971855016-3.9941786867h2.0971855016c.2028462526,1.0831347111.6759465083,1.895502432,1.4536400047,2.4709318853.7783461644.5754949674,1.725189455.8800931525,2.8748789981.8800931525.879445429,0,1.6908403284-.169214072,2.4348373663-.5416007306.7439970379-.3723211446,1.1159930846-.9815817929,1.1159930846-1.7939495138,0-.5077695357-.1348006675-.8800919164-.4056974497-1.1509244207-.2702490586-.2707669903-.6422451053-.473875299-1.0822916816-.643089371-.4393988527-.1353828771-1.082296626-.304661227-1.8936915255-.4400453402l-.5748472438-.1353841132c-1.1840386697-.2708325043-2.1308819602-.5415994945-2.9085804011-.8462619576-.7439920934-.3046624631-1.3868898668-.7446435253-1.893686581-1.3201384927-.5074444378-.5754294533-.7439970379-1.3539672154-.7439970379-2.3017190494,0-1.5231812874.5411458408-2.6741057081,1.6571389254-3.4187492334,1.1159930846-.7447084213,2.4011359633-1.117030184,3.8891250946-1.117030184,1.5553919373,0,2.874236219.4400459582,4.0245784301,1.2862436379,1.1159930846.8800919164,1.7919395929,2.1663355543,1.9610844425,3.8587951916h-2.1302342366c-.2028511971-1.0493059884-.6765942319-1.7939488957-1.4205912698-2.3355490083-.7439970379-.5077701538-1.6571389254-.7785377621-2.6713850219-.7785377621-.845744026,0-1.5897361194.169213454-2.2663352957.5416001126-.6422451053.3723217627-.9805446935.947751216-.9805446935,1.7601189368,0,.5077707718.1691497941.9139218752.5074493823,1.2185843383.3376469201.3046624631.7439920934.5077695357,1.2170923491.6431536489.4737479793.1353841132,1.2177400727.3384924219,2.1982847662.5077052578,1.2177450171.2708325043,2.2319861692.5416007306,2.975983207.8123677209.77834122.3046624631,1.3868898668.7108790805,1.8943343046,1.2863085339.5068016587.5754306894.7439970379,1.3539684515.7439970379,2.3355490083,0,.9816460708-.2708967822,1.8279092645-.812042623,2.5048928722s-1.2507937521,1.1508601428-2.0965377781,1.4555226059c-.879445429.304595713-1.7588908579.4738740629-2.7057341484.4738740629-1.7245367869.1015541544-3.1788294597-.3384899497-4.3622204058-1.2185831022Z"/>
  <path class="cls-1" d="m82.2488499628,24.5236917961c-1.1840386697-.9139218752-1.8943343046-2.2340603679-2.0971805572-3.9941786867h2.0971805572c.2028511971,1.0831347111.6759465083,1.895502432,1.4536498936,2.4709318853.7783362755.5754949674,1.725179566.8800931525,2.8748740536.8800931525.8794503734,0,1.6908452728-.169214072,2.4348373663-.5416007306.7439920934-.3723211446,1.1159930846-.9815817929,1.1159930846-1.7939495138,0-.5077695357-.1347957231-.8800919164-.4057023942-1.1509244207-.2702441142-.2707669903-.6422451053-.473875299-1.0822916816-.643089371-.4393939083-.1353828771-1.0822916816-.304661227-1.893686581-.4400453402l-.5748422993-.1353841132c-1.1840485586-.2708325043-2.1308918491-.5415994945-2.9085853455-.8462619576-.7439920934-.3046624631-1.3868898668-.7446435253-1.893686581-1.3201384927-.5074444378-.5754294533-.7439970379-1.3539672154-.7439970379-2.3017190494,0-1.5231812874.5411458408-2.6741057081,1.6571389254-3.4187492334,1.1159930846-.7447084213,2.4011359633-1.117030184,3.889130039-1.117030184,1.5553869928,0,2.8742312745.4400459582,4.0245685412,1.2862436379,1.1159930846.8800919164,1.7919395929,2.1663355543,1.961089387,3.8587951916h-2.1302391811c-.2028413082-1.0493059884-.6765892874-1.7939488957-1.4205912698-2.3355490083-.7439920934-.5077701538-1.6571339809-.7785377621-2.6713800774-.7785377621-.8457390815,0-1.5897410638.169213454-2.2663303513.5416001126-.6422451053.3723217627-.9805446935.947751216-.9805446935,1.7601189368,0,.5077707718.1691497941.9139218752.5074394934,1.2185843383.337656809.3046624631.7440019823.5077695357,1.2170972936.6431536489.4737479793.1353841132,1.2177400727.3384924219,2.1982847662.5077052578,1.2177400727.2708325043,2.2319861692.5416007306,2.9759782626.8123677209.7783461644.3046624631,1.3868898668.7108790805,1.894339249,1.2863085339.5067967142.5754306894.7439920934,1.3539684515.7439920934,2.3355490083,0,.9816460708-.2708967822,1.8279092645-.8120376785,2.5048928722-.5411507853.6769836077-1.2514414757,1.1508601428-2.0965377781,1.4555226059-.8794404845.304595713-1.7588908579.4738740629-2.7057341484.4738740629-1.7245367869.1015541544-3.1788294597-.3384899497-4.3622253503-1.2185831022Z"/>
  <path class="cls-1" d="m16.9439488911,20.5295773873h1.7247345651v-10.8655590291h-1.8262232055v-5.0096812155h6.1889009733v15.8752402446h1.724798843v5.0435501891h-7.7783812172v-5.0435501891h-.0338299588Z"/>
  <path class="cls-1" d="m25.6019040931,20.5295773873h1.7247345651v-10.8655590291h-1.8262244416v-5.0096812155h6.1888997372v15.8752402446h1.724798843v5.0435501891h-7.7784454951v-5.0435501891h-.0337632087Z"/>
  <path class="cls-1" d="m106.6328434768,24.6254412564c-.9131418875-.7446447614-1.3525357958-1.760120791-1.3525357958-3.0464280888,0-2.9109796977,2.4348274773-4.5018851806,7.3045022099-4.8065476437.9131418875-.0677241956,1.5897410639-.1692783499,1.9954335691-.3723211446.4057023942-.2031083087.6085535913-.4400465762.6085535913-.778537762,0-.4062166174-.2028511971-.7447090394-.6085535913-1.0154760296-.4056925052-.2708325043-.9468432905-.3723866586-1.5897410638-.3723866586-.6759465083,0-1.2170874047.1354483911-1.6571339809.4400453402-.4393939082.2708325043-.7096479113.6769848438-.8450963024,1.2185843383h-4.4639723384c.2028511971-1.6586296785.9805446935-3.0125975119,2.2993889752-3.9941786867,1.3188343928-.9816466888,2.9422768596-1.4893519466,4.9040189146-1.4893519466,1.9954335691,0,3.5845219649.5415352166,4.7685705235,1.6247354417,1.1833860017,1.0832002251,1.7919395929,2.5725521717,1.7919395929,4.4003959222v4.8065464076h1.5560396609v4.1973512733h-5.5462739089v-1.5570755241c-.6428878844.5754306894-1.4542827839,1.0493047523-2.4011260744,1.3539672154-.9468531794.3384924219-1.961742055.4738765351-3.0103323336.4738765351-1.6234424669.0338299588-2.8405298715-.3384924219-3.7536816479-1.083198989Zm6.7977054956-2.9787038932c.5748521883-.3046624631,1.0486001675-.7108135665,1.3862470877-1.1846901016.3382995882-.473940813.5411408963-1.0154760296.5411408963-1.5232455653v-.169214072c-.1691399052.1014898764-.5067967142.2369382675-.9805348046.3723223807-.4737479793.1353828771-.9805446935.2369370314-1.4879940758.2707669902-1.0148987645.0677241955-1.7245367869.2708325042-2.1308918491.5416007306-.4056925053.2707669903-.6422451053.6431536489-.6422451053,1.0832002252,0,.3384911858.1354483911.6092594121.3720009912.8123677208.2702441142.2031070726.6085437023.2707669903,1.0822916816.2707669903.6759465083,0,1.2851428787-.169214072,1.859985178-.473875299Z"/>
  <path class="cls-1" d="m1.3527688804,24.6254412564c-.9131182468-.7446447614-1.3527688804-1.760120791-1.3527688804-3.0464280888,0-2.9109796977,2.4349840775-4.5018851806,7.3049323002-4.8065476437.9131443597-.0677241956,1.5895451398-.1692783499,1.9953723815-.3723211446.4058278597-.2031083087.6087408625-.4400465762.6087408625-.778537762,0-.4062166174-.2029130028-.7447090394-.6087408625-1.0154760296-.4058272416-.2708325043-.9469737005-.3723866586-1.5895445218-.3723866586-.6763358841,0-1.217482343.1354483911-1.6571395435.4400453402-.4396572005.2708325043-.7101850027.6769848438-.8454652823,1.2185843383H.7102043942c.2029137753-1.6586296785.9807582321-3.0125975119,2.2997038751-3.9941786867,1.3189518236-.9816466888,2.9422879846-1.4893519466,4.9037655113-1.4893519466,1.9953717634,0,3.5848520073.5415352166,4.7685050095,1.6247354417,1.1837172801,1.0832002251,1.7924575245,2.5725521717,1.7924575245,4.4003959222v4.8065464076h1.555650285v4.1973512733h-5.546329534v-1.5570755241c-.6425714393.5754306894-1.4542259226,1.0493047523-2.4011996231,1.3539672154-.9469088045.3384924219-1.9614775267.4738765351-3.0098755896.4738765351-1.5894997126.0338299588-2.8069947258-.3384924219-3.7201129726-1.083198989Zm6.8314778206-2.9787038932c.5749115217-.3046624631,1.048398681-.7108135665,1.386566005-1.1846901016.338232838-.473940813.5411470769-1.0154760296.5411470769-1.5232455653v-.169214072c-.1690842801.1014898764-.5073171181.2369382675-.9808036593.3723223807-.4734222633.1353828771-.9807393814.2369370314-1.4879909855.2707669902-1.0145687222.0677241955-1.724798843.2708325042-2.1306328833.5416007306-.4058340403.2707669903-.6425646407.6431536489-.6425646407,1.0832002252,0,.3384911858.1352740991.6092594121.3720108801.8123677208.2705537606.2031070726.6087285013.2707669903,1.0822150426.2707669903.6425708213,0,1.2513123018-.169214072,1.8600531643-.473875299Z"/>
  <path class="cls-1" d="m123.7097438866,3.503425624h6.2902561134l-3.0096796656,5.720514019h-.3045981852l-2.9759782626-5.720514019Zm.7439920934,7.2098851254h4.8022719265v14.7243684359h-4.8022719265v-14.7243684359Z"/>
  <path class="cls-1" d="m95.2000776225,25.6205671467h7.0342482068v-7.0406080116h-7.0342482068v7.0406080116Z"/>
</svg>