<svg width="15" height="11" viewBox="0 0 15 11" fill="none" xmlns="http://www.w3.org/2000/svg">
<path d="M13.3333 4.66667H1.33333V8.66667C1.33333 9.03486 1.63181 9.33333 2 9.33333H12.6667C13.0349 9.33333 13.3333 9.03486 13.3333 8.66667V4.66667ZM13.3333 2C13.3333 1.63181 13.0349 1.33333 12.6667 1.33333H2C1.63181 1.33333 1.33333 1.63181 1.33333 2V3.33333H13.3333V2ZM14.6667 8.66667C14.6667 9.77124 13.7712 10.6667 12.6667 10.6667H2C0.89543 10.6667 0 9.77124 0 8.66667V2C0 0.895431 0.895431 0 2 0H12.6667C13.7712 0 14.6667 0.895431 14.6667 2V8.66667Z" fill="black"/>
</svg>
