<svg xmlns="http://www.w3.org/2000/svg" fill="none" viewBox="0 0 20 20" class="payment-select_icon__XtSM6"><g clip-path="url(#sepa_svg__a)"><path d="M0 0h20v20H0z"></path><g fill="#FFB800" clip-path="url(#sepa_svg__b)"><path d="M8.68 15.85c.34.25.68.48 1.01.74.2.16.34.16.54 0 .33-.26.67-.5 1.01-.74l.07.04-.05.3-.33.98a.33.33 0 0 0 .14.43c.37.24.72.52 1.04.82-.1.03-.21.05-.32.06h-.97a.36.36 0 0 0-.4.29l-.34 1-.1.22a1 1 0 0 1-.14-.18L9.57 19c-.2-.61-.13-.5-.73-.52-.3 0-.61 0-.92-.02-.03 0-.07-.03-.16-.07.34-.25.63-.49.95-.7.27-.17.37-.35.23-.67-.13-.36-.25-.73-.35-1.1l.09-.07ZM6.78 5l-1.17.2c-.42.05-.45.08-.5.5l-.18 1.12-.1.01c-.12-.2-.24-.41-.34-.62-.4-.8-.4-.8-1.26-.64-.23.05-.47.07-.8.1a3 3 0 0 1 .22-.28l.75-.75a.31.31 0 0 0 .07-.44L3 3.3l-.12-.28.06-.06.56.26c.28.14.59.4.84.36.26-.05.48-.38.7-.6l.46-.43.08.04-.1.83c-.15.73-.16.73.5 1.06l.8.42-.01.1Zm8.99 6.32.76-1.04c.15-.19.14-.33 0-.51-.26-.32-.49-.66-.73-1l.04-.07c.1 0 .2.02.29.04.33.1.65.2.98.32a.3.3 0 0 0 .4-.13c.19-.28.4-.54.59-.81l.26-.32.05.35c.02.33.02.65 0 .98-.03.3.14.41.38.48.38.11.75.24 1.21.39l-.33.18a20.28 20.28 0 0 1-1.1.36.33.33 0 0 0-.16.33c.02.33 0 .66 0 .98l-.03.3-.09.03-.52-.69c-.5-.68-.3-.57-1.1-.33l-.84.26-.06-.1Zm1.27-8.29c-.18.35-.34.71-.53 1.05-.16.26-.15.45.1.65.22.2.44.42.64.65.07.06.12.14.18.2l-.04.09c-.4-.06-.8-.09-1.2-.18-.3-.07-.43.01-.54.27-.16.37-.36.71-.55 1.07h-.08a2.78 2.78 0 0 1-.1-.34c-.05-.31-.1-.63-.13-.94a.36.36 0 0 0-.37-.35c-.42-.05-.84-.13-1.27-.2l-.02-.09.95-.5c.5-.25.5-.25.4-.83-.07-.33-.1-.68-.1-1.02l.24.18c.24.24.49.46.71.71.17.19.31.19.51.07.28-.16.58-.3.87-.44l.26-.11.07.06ZM1.5 12.17v-1.08c0-.51 0-.51-.48-.67l-.76-.25a2.73 2.73 0 0 1-.26-.11v-.08l1.05-.35c.46-.13.46-.13.46-.6V7.9l.1-.03.19.21.6.82a.35.35 0 0 0 .46.14c.32-.12.66-.22.98-.32l.28-.03-.11.23c-.19.28-.38.55-.6.81-.18.22-.16.38 0 .6.26.31.49.66.73.99l-.04.07a2.3 2.3 0 0 1-.26-.06c-.33-.1-.67-.21-1-.33a.34.34 0 0 0-.46.15c-.23.36-.5.7-.76 1.04l-.11-.02ZM7.83 1.58c.4 0 .82-.02 1.22 0 .29.02.4-.1.48-.35.1-.38.24-.76.4-1.23l.14.26.35 1.06a.32.32 0 0 0 .36.26h1.04l.36.03c-.12.12-.18.2-.26.24-.27.21-.55.42-.83.61-.2.13-.22.28-.15.48.12.32.22.64.32.96l.07.31a2.34 2.34 0 0 1-.26-.12c-.26-.19-.54-.37-.79-.58-.22-.19-.4-.2-.64 0-.23.21-.52.39-.78.58l-.26.14c0-.1.03-.21.05-.31l.27-.84c.14-.44.14-.44-.22-.7l-.92-.67.05-.13ZM5.52 17.52l-.58-.56c-.7-.67-.4-.62-1.26-.2l-.78.38c.01-.1.04-.19.07-.28.12-.26.26-.52.4-.79.26-.52.26-.42-.15-.83-.25-.25-.51-.48-.77-.71l.07-.13c.3.04.62.07.93.13.63.12.63.13.92-.43l.48-.94c.06.12.1.24.14.36.05.3.1.62.13.93.02.24.13.38.38.4.32.04.64.1.96.16l.35.07a1.8 1.8 0 0 1-.22.18c-.33.17-.65.35-1 .51a.3.3 0 0 0-.19.37c.07.36.12.72.17 1.08l.02.25-.07.05Zm11.92-3.03-.52.53-.42.42a.3.3 0 0 0-.06.41l.47.92.15.35-.36-.13-.83-.43c-.23-.14-.39-.13-.57.07-.2.25-.45.47-.68.7a.54.54 0 0 1-.29.15l.1-.79c.15-.79.15-.79-.56-1.14l-.69-.37v-.08l.27-.09c.32-.05.64-.12.96-.15.29-.03.38-.19.4-.45.02-.3.08-.6.13-.9.03-.12.07-.24.13-.36.22.44.43.8.59 1.17a.4.4 0 0 0 .5.27l.94-.15.3-.03.04.08Z"></path></g></g><defs><clipPath id="sepa_svg__a"><path fill="#fff" d="M0 0h20v20H0z"></path></clipPath><clipPath id="sepa_svg__b"><path fill="#fff" d="M0 0h20v19.99H0z"></path></clipPath></defs></svg>