<svg xmlns="http://www.w3.org/2000/svg" fill="none" viewBox="0 0 20 20"><g clip-path="url(#a)"><path fill="#627EEA" d="M10 20a10 10 0 1 0 0-20 10 10 0 0 0 0 20Z"/><path fill="#fff" fill-opacity=".6" d="M10.31 2.5v5.54l4.69 2.1L10.3 2.5Z"/><path fill="#fff" d="m10.31 2.5-4.69 7.64 4.7-2.1V2.5Z"/><path fill="#fff" fill-opacity=".6" d="M10.31 13.73v3.77L15 11l-4.69 2.72Z"/><path fill="#fff" d="M10.31 17.5v-3.77L5.62 11l4.7 6.49Z"/><path fill="#fff" fill-opacity=".2" d="M10.31 12.86 15 10.14l-4.69-2.1v4.82Z"/><path fill="#fff" fill-opacity=".6" d="m5.63 10.14 4.68 2.72V8.05l-4.69 2.09Z"/></g><defs><clipPath id="a"><path fill="#fff" d="M0 0h20v20H0z"/></clipPath></defs></svg>
