<svg width="33" viewBox="0 0 33 32" fill="none" xmlns="http://www.w3.org/2000/svg">
    <g clip-path="url(#clip0_694_4204)">
        <rect x="0.599609" width="32" height="32" rx="16" fill="white" />
        <path
            d="M16.5996 32C25.4362 32 32.5996 24.8366 32.5996 16C32.5996 7.16344 25.4362 0 16.5996 0C7.76305 0 0.599609 7.16344 0.599609 16C0.599609 24.8366 7.76305 32 16.5996 32Z"
            fill="#7A8A9A" />
        <path fill-rule="evenodd" clip-rule="evenodd"
            d="M8.59961 18.9233L9.37595 17.0026H10.1973C10.1761 16.674 10.1652 16.3448 10.1647 16.0154C10.1647 15.5861 10.183 15.1873 10.2184 14.8174H8.59961L9.37595 12.8976H10.597C11.7337 9.245 14.2966 7.41821 18.2827 7.41821C19.5929 7.41821 20.838 7.58786 22.0178 7.9281V10.3472C20.9074 9.85104 19.704 9.59748 18.4879 9.60346C16.0985 9.60346 14.5621 10.7018 13.8777 12.8986H20.9923L20.2159 14.8183H13.4139C13.3731 15.1345 13.3552 15.4532 13.3602 15.772C13.3602 16.2311 13.3746 16.6413 13.4033 17.0036H19.3294L18.5626 18.9233H13.8135C14.3244 20.2546 14.9474 21.1805 15.6815 21.7028C16.4147 22.2242 17.4623 22.4849 18.8223 22.4849C19.7942 22.4849 20.859 22.2482 22.0178 21.7747V24.0491C20.9165 24.4631 19.6073 24.6702 18.0882 24.6702C14.0944 24.6702 11.5679 22.7542 10.5107 18.9233H8.59961Z"
            fill="white" />
    </g>
    <defs>
        <clipPath id="clip0_694_4204">
            <rect x="0.599609" width="32" height="32" rx="16" fill="white" />
        </clipPath>
    </defs>
</svg>