<svg xmlns="http://www.w3.org/2000/svg" fill="none" viewBox="0 0 20 20"><g clip-path="url(#a)"><path fill="#2775CA" d="M10 20a10 10 0 1 0 0-20 10 10 0 0 0 0 20Z"/><path fill="#fff" d="M12.75 11.58c0-1.45-.88-1.96-2.63-2.16-1.25-.17-1.5-.5-1.5-1.09 0-.58.42-.96 1.25-.96.75 0 1.17.25 1.38.88a.31.31 0 0 0 .3.2h.66a.28.28 0 0 0 .3-.29v-.04a2.08 2.08 0 0 0-1.88-1.7v-1c0-.17-.13-.3-.34-.34h-.62c-.17 0-.3.12-.33.33v.96c-1.26.18-2.05 1-2.05 2.05 0 1.37.83 1.91 2.58 2.12 1.17.21 1.55.46 1.55 1.13 0 .67-.58 1.12-1.37 1.12-1.09 0-1.46-.45-1.59-1.08a.3.3 0 0 0-.3-.26h-.7a.29.29 0 0 0-.3.3v.04c.17 1.04.84 1.79 2.21 2v1c0 .16.13.29.33.33h.63c.17 0 .3-.12.33-.33v-1c1.25-.21 2.09-1.09 2.09-2.21Z"/><path fill="#fff" d="M7.87 15.96a6.24 6.24 0 0 1 0-11.71.42.42 0 0 0 .25-.42v-.58a.32.32 0 0 0-.25-.33 7.5 7.5 0 0 0-.05 14.37.25.25 0 0 0 .26-.2c.04-.05.04-.09.04-.17v-.59c0-.12-.12-.29-.25-.37Zm4.42-13a.25.25 0 0 0-.37.17c-.05.04-.05.08-.05.16v.58a.55.55 0 0 0 .25.42 6.24 6.24 0 0 1 0 11.71.42.42 0 0 0-.25.42V17a.32.32 0 0 0 .25.33 7.53 7.53 0 0 0 .17-14.38Z"/></g><defs><clipPath id="a"><path fill="#fff" d="M0 0h20v20H0z"/></clipPath></defs></svg>
