<svg width="128" height="128" viewBox="0 0 128 128" fill="none" xmlns="http://www.w3.org/2000/svg">
<path fill-rule="evenodd" clip-rule="evenodd" d="M61.638 0L115.502 17.0506L115.505 49.7517C115.511 57.2037 116.073 67.3468 114.462 74.3095C111.536 86.9582 102.985 98.8313 92.9718 107.043C88.8667 110.41 84.2917 113.507 79.8923 116.545C74.2315 120.532 62.5564 127.999 62.5564 127.999C62.5564 127.999 37.1674 111.774 33.7089 109.123C31.1239 107.148 28.6627 105.021 26.3398 102.752C17.7119 94.2451 9.59135 81.0777 8.74049 68.9129C8.36292 63.5138 8.61683 54.8487 8.61556 49.1773L8.6278 17.0274C8.6278 17.0274 44.2075 5.70485 61.638 0ZM61.7798 11.7459L34.1077 20.5549C29.5868 21.9943 24.2303 23.8538 19.719 25.1169L19.7173 51.5896C19.713 56.3024 19.467 63.2096 19.7827 67.7134C20.4596 77.3669 26.9498 87.7238 33.8064 94.4421C35.582 96.1828 37.4661 97.8113 39.4471 99.32C42.4897 101.649 62.4369 114.318 62.4369 114.318C62.4369 114.318 71.4077 108.405 76.052 105.38C88.7466 97.1105 99.6373 87.4469 103.501 72.302C104.839 67.055 104.389 57.8192 104.384 51.9338L104.356 25.1285C100.366 23.8629 62.8816 11.5516 61.7798 11.7459Z" fill="url(#paint0_linear_791_2494)"/>
<path fill-rule="evenodd" clip-rule="evenodd" d="M34.2064 25.6001C34.2064 25.6001 55.6341 25.6107 62.4854 25.6047C70.9002 25.8947 82.3598 24.5529 87.7412 32.3014C94 41.3135 92.0787 51.0937 83.2206 57.4769C90.4328 61.0181 95.1319 67.5521 93.8306 75.8139C92.7984 82.3676 86.5284 86.5199 81.3825 90.0262C74.6737 94.4826 67.7611 98.8294 60.9879 103.216C51.8771 97.7122 41.6672 91.0412 34.1338 83.4899L34.2064 25.6001ZM46.8208 37.5575L46.8195 79.8814L46.8208 79.881V79.8992H71.8145C76.3431 79.8992 80.0142 76.2836 80.0142 71.8238C80.0141 67.3642 76.343 63.7489 71.8145 63.7489H52.9229V52.7295H71.2861C75.5402 52.7294 78.9889 49.3332 78.989 45.1437C78.989 40.9542 75.5403 37.5576 71.2861 37.5575H46.8208Z" fill="url(#paint1_linear_791_2494)"/>
<path fill-rule="evenodd" clip-rule="evenodd" d="M34.2064 25.6001C34.2064 25.6001 55.6341 25.6107 62.4854 25.6047C70.9002 25.8947 82.3598 24.5529 87.7412 32.3014C94 41.3135 92.0787 51.0937 83.2206 57.4769C90.4328 61.0181 95.1319 67.5521 93.8306 75.8139C92.7984 82.3676 86.5284 86.5199 81.3825 90.0262C74.6737 94.4826 67.7611 98.8294 60.9879 103.216C51.8771 97.7122 41.6672 91.0412 34.1338 83.4899L34.2064 25.6001ZM46.8208 37.5575L46.8195 79.8814L46.8208 79.881V79.8992H71.8145C76.3431 79.8992 80.0142 76.2836 80.0142 71.8238C80.0141 67.3642 76.343 63.7489 71.8145 63.7489H52.9229V52.7295H71.2861C75.5402 52.7294 78.9889 49.3332 78.989 45.1437C78.989 40.9542 75.5403 37.5576 71.2861 37.5575H46.8208Z" fill="url(#paint2_linear_791_2494)"/>
<defs>
<linearGradient id="paint0_linear_791_2494" x1="43.5497" y1="-0.255706" x2="43.5497" y2="128.195" gradientUnits="userSpaceOnUse">
<stop stop-color="#D8E0F0"/>
<stop offset="1" stop-color="#929AAA"/>
</linearGradient>
<linearGradient id="paint1_linear_791_2494" x1="64.0904" y1="25.6001" x2="64.0904" y2="103.216" gradientUnits="userSpaceOnUse">
<stop offset="0.0288462" stop-color="#FFC95E"/>
<stop offset="0.221154" stop-color="#FFBA32"/>
<stop offset="0.552885" stop-color="#FF9E00"/>
<stop offset="0.980769" stop-color="#F57577"/>
</linearGradient>
<linearGradient id="paint2_linear_791_2494" x1="60.8005" y1="21.0798" x2="82.7515" y2="104.933" gradientUnits="userSpaceOnUse">
<stop offset="0.339286" stop-color="#FF8A00"/>
<stop offset="1" stop-color="#FF4D00"/>
</linearGradient>
</defs>
</svg>
