<svg xmlns="http://www.w3.org/2000/svg" fill="none" viewBox="0 0 20 20"><g clip-path="url(#a)"><path fill="#F7931A" d="M10 20a10 10 0 1 0 0-20 10 10 0 0 0 0 20Z"/><path fill="#fff" d="M14.5 8.76c.19-1.3-.8-2.01-2.17-2.48l.44-1.78-1.08-.27-.43 1.73-.87-.2.44-1.74-1.08-.27-.45 1.77-.69-.16-1.48-.38-.3 1.16s.81.18.8.2c.43.1.51.4.5.62l-.5 2.02.1.04-.1-.03-.72 2.83c-.05.14-.18.34-.5.26.02.02-.78-.2-.78-.2l-.53 1.24 1.4.35.77.2-.44 1.8 1.08.26.44-1.77.86.22-.44 1.77 1.08.27.45-1.8c1.84.36 3.22.21 3.8-1.45.48-1.34-.02-2.12-.99-2.62.71-.16 1.24-.63 1.38-1.59Zm-2.48 3.46c-.33 1.35-2.59.62-3.32.44l.6-2.38c.73.18 3.07.54 2.72 1.94Zm.34-3.48c-.3 1.22-2.19.6-2.8.45l.54-2.15c.61.15 2.58.43 2.26 1.7Z"/></g><defs><clipPath id="a"><path fill="#fff" d="M0 0h20v20H0z"/></clipPath></defs></svg>
