<svg width="33" height="32" viewBox="0 0 33 32" fill="none" xmlns="http://www.w3.org/2000/svg">
<g clip-path="url(#clip0_5851_52644)">
<circle cx="16.2041" cy="16" r="16" fill="#D9D9D9"/>
<circle cx="16.2041" cy="16" r="16" fill="#EF0027"/>
<path d="M22.1363 9.91303L7.70435 7.25703L15.2993 26.369L25.8823 13.475L22.1363 9.91303ZM21.9043 11.083L24.1123 13.182L18.0743 14.275L21.9043 11.083ZM16.7623 14.056L10.3983 8.77803L20.8003 10.692L16.7623 14.056ZM16.3093 14.99L15.2713 23.57L9.67635 9.48703L16.3093 14.989V14.99ZM17.2693 15.445L23.9563 14.235L16.2863 23.578L17.2693 15.445Z" fill="white"/>
</g>
<defs>
<clipPath id="clip0_5851_52644">
<path d="M0.204102 16C0.204102 7.16344 7.36755 0 16.2041 0C25.0407 0 32.2041 7.16344 32.2041 16C32.2041 24.8366 25.0407 32 16.2041 32C7.36755 32 0.204102 24.8366 0.204102 16Z" fill="white"/>
</clipPath>
</defs>
</svg>
